name D:\school\WTK\thesis\model\3dpredictsim\Results\MidTarsalJoint\Fal_s1_bCst_PF_Natali2010_ls148_MT_nl_fitted_Tmtp_ig24_v3.mot
datacolumns 128
datarows 4
range 0.55896726 0.59250530
endheader
time	pelvis_tilt	pelvis_list	pelvis_rotation	pelvis_tx	pelvis_ty	pelvis_tz	hip_flexion_l	hip_adduction_l	hip_rotation_l	hip_flexion_r	hip_adduction_r	hip_rotation_r	knee_angle_l	knee_angle_r	ankle_angle_l	ankle_angle_r	subtalar_angle_l	subtalar_angle_r	tmt_angle_l	tmt_angle_r	mtp_angle_l	mtp_angle_r	lumbar_extension	lumbar_bending	lumbar_rotation	arm_flex_l	arm_add_l	arm_rot_l	arm_flex_r	arm_add_r	arm_rot_r	elbow_flex_l	elbow_flex_r	pro_sup_l	pro_sup_r	glut_med1_l/activation	glut_med2_l/activation	glut_med3_l/activation	glut_min1_l/activation	glut_min2_l/activation	glut_min3_l/activation	semimem_l/activation	semiten_l/activation	bifemlh_l/activation	bifemsh_l/activation	sar_l/activation	add_long_l/activation	add_brev_l/activation	add_mag1_l/activation	add_mag2_l/activation	add_mag3_l/activation	tfl_l/activation	pect_l/activation	grac_l/activation	glut_max1_l/activation	glut_max2_l/activation	glut_max3_l/activation	iliacus_l/activation	psoas_l/activation	quad_fem_l/activation	gem_l/activation	peri_l/activation	rect_fem_l/activation	vas_med_l/activation	vas_int_l/activation	vas_lat_l/activation	med_gas_l/activation	lat_gas_l/activation	soleus_l/activation	tib_post_l/activation	flex_dig_l/activation	flex_hal_l/activation	tib_ant_l/activation	per_brev_l/activation	per_long_l/activation	per_tert_l/activation	ext_dig_l/activation	ext_hal_l/activation	ercspn_l/activation	intobl_l/activation	extobl_l/activation	glut_med1_r/activation	glut_med2_r/activation	glut_med3_r/activation	glut_min1_r/activation	glut_min2_r/activation	glut_min3_r/activation	semimem_r/activation	semiten_r/activation	bifemlh_r/activation	bifemsh_r/activation	sar_r/activation	add_long_r/activation	add_brev_r/activation	add_mag1_r/activation	add_mag2_r/activation	add_mag3_r/activation	tfl_r/activation	pect_r/activation	grac_r/activation	glut_max1_r/activation	glut_max2_r/activation	glut_max3_r/activation	iliacus_r/activation	psoas_r/activation	quad_fem_r/activation	gem_r/activation	peri_r/activation	rect_fem_r/activation	vas_med_r/activation	vas_int_r/activation	vas_lat_r/activation	med_gas_r/activation	lat_gas_r/activation	soleus_r/activation	tib_post_r/activation	flex_dig_r/activation	flex_hal_r/activation	tib_ant_r/activation	per_brev_r/activation	per_long_r/activation	per_tert_r/activation	ext_dig_r/activation	ext_hal_r/activation	ercspn_r/activation	intobl_r/activation	extobl_r/activation	
          0.55896726	         -2.92988909	          1.85146689	         -4.88252716	          0.69870908	          0.91822568	          0.00262034	         29.99285912	          2.96871064	         -2.67376981	        -16.95567501	         -0.41788834	          6.49997842	        -11.40717174	         -5.50238554	          5.94892435	         -0.79454180	         -5.58406091	          5.44373151	          0.54803862	          5.41965693	         -0.82874974	         12.40477601	         -1.84114299	          0.08657409	          1.92512584	         -4.89172644	        -13.49876606	          7.41141959	          5.49139052	        -13.44977102	         15.52621376	         17.04106294	         30.90673035	         86.51662706	         86.51662706	          0.06215932	          0.05000020	          0.05931615	          0.05000012	          0.05000016	          0.05000096	          0.25547317	          0.06865192	          0.09097464	          0.05207612	          0.05000155	          0.07562649	          0.16525962	          0.18246884	          0.14124022	          0.10250551	          0.05931693	          0.05000661	          0.08914419	          0.05931673	          0.05931660	          0.10502943	          0.05000014	          0.05000022	          0.20607125	          0.05000122	          0.05000036	          0.05000011	          0.05000153	          0.05000158	          0.05000095	          0.05931612	          0.05931614	          0.05931611	          0.05782615	          0.05000289	          0.05496550	          0.43364994	          0.27828037	          0.19714538	          0.11064747	          0.42932489	          0.06911171	          0.06833872	          0.14300208	          0.11877471	          0.31571133	          0.11748684	          0.08548544	          0.31771029	          0.22141876	          0.13187793	          0.05000075	          0.05000023	          0.05000020	          0.06339087	          0.11970020	          0.05000008	          0.05000009	          0.05000015	          0.05000047	          0.05000034	          0.35228803	          0.05000042	          0.05000049	          0.05911622	          0.05001386	          0.05000128	          0.45343576	          0.69216004	          0.05000093	          0.05829851	          0.07037351	          0.25357228	          0.05000085	          0.05000087	          0.05000078	          0.33923115	          0.44948672	          0.35080701	          0.29441910	          0.29660056	          0.36262252	          0.05000007	          0.05000054	          0.10447218	          0.05000027	          0.05000008	          0.05000034	          0.05000001	          0.05000001	          0.05000002	
          0.57014661	         -2.92944913	          1.95218173	         -5.20303539	          0.71510838	          0.91725158	          0.00243828	         29.52394073	          3.29216341	         -2.47623052	        -16.95495131	         -0.72079920	          6.29603534	        -11.52167629	         -7.20430776	          5.25713437	         -1.22770840	         -5.93894678	          6.32103159	          0.45364809	          5.04014139	         -0.86676755	         13.68278807	         -1.66478603	         -0.11124522	          1.98758156	         -5.71724562	        -13.49621778	          7.34518822	          5.34222303	        -13.45115594	         15.92645350	         16.57622788	         32.06669404	         86.51662706	         86.51662706	          0.05539748	          0.05931592	          0.05000016	          0.07987731	          0.05931653	          0.05000206	          0.21534902	          0.05786961	          0.07668631	          0.05000055	          0.05000061	          0.11748611	          0.21869610	          0.19902516	          0.15866885	          0.09857712	          0.05000081	          0.06973639	          0.07514370	          0.05000075	          0.05000049	          0.11148265	          0.07032576	          0.05936423	          0.44931263	          0.17067321	          0.11085165	          0.08347903	          0.16926538	          0.16785386	          0.14744745	          0.05000002	          0.05000005	          0.05000000	          0.05000004	          0.05000060	          0.05000029	          0.50566070	          0.25602717	          0.16618227	          0.23309567	          0.47449295	          0.07065054	          0.05760553	          0.12054236	          0.10012011	          0.26612709	          0.09903453	          0.07205922	          0.26781126	          0.18664307	          0.11116539	          0.05000257	          0.05000044	          0.05000033	          0.05343487	          0.10090039	          0.07278233	          0.07252636	          0.05000649	          0.05000702	          0.05000676	          0.29695827	          0.05004585	          0.05000267	          0.05000277	          0.05000212	          0.05000251	          0.38221976	          0.59512696	          0.05000044	          0.05000179	          0.05932079	          0.21374660	          0.05830897	          0.05437282	          0.11253340	          0.28595193	          0.37889112	          0.33117464	          0.28254617	          0.25941298	          0.34013658	          0.05000005	          0.05000224	          0.10787063	          0.05000030	          0.05000008	          0.05000030	          0.05000003	          0.07036822	          0.05000016	
          0.58132595	         -2.92517377	          2.05251454	         -5.49798707	          0.73186473	          0.91635583	          0.00225910	         28.94412589	          3.57458274	         -2.22209737	        -16.89933569	         -1.02493673	          6.08199264	        -12.08730293	         -9.00680673	          4.56806025	         -1.75990066	         -6.29823664	          7.17663495	          0.24224838	          4.51321157	         -0.88333559	         15.01130935	         -1.46179296	         -0.31851686	          2.04104674	         -6.58866959	        -13.49470419	          7.30050652	          5.11344509	        -13.45099520	         16.26841603	         16.18135152	         33.19591231	         86.51662706	         86.51662706	          0.10799191	          0.05000011	          0.10222219	          0.06733192	          0.05000042	          0.05000029	          0.19460216	          0.05000031	          0.07899789	          0.05000010	          0.05000603	          0.09903401	          0.18434825	          0.16776721	          0.13374929	          0.11125352	          0.05000079	          0.05932497	          0.06334213	          0.05000120	          0.09029702	          0.09397403	          0.05928078	          0.05004118	          0.37874420	          0.14386756	          0.09344158	          0.07036792	          0.14268082	          0.14149098	          0.12428957	          0.06158340	          0.07031134	          0.05889044	          0.05681500	          0.05000188	          0.05000814	          0.42624224	          0.25028433	          0.16807069	          0.19648598	          0.52989999	          0.05955427	          0.05000001	          0.11320134	          0.08439537	          0.29341917	          0.08348030	          0.06074171	          0.22574937	          0.15732920	          0.09370593	          0.05000317	          0.05000227	          0.05000264	          0.05000020	          0.08505331	          0.11076366	          0.06153384	          0.05931726	          0.05931677	          0.05931837	          0.25031858	          0.05994140	          0.05000688	          0.05000613	          0.05000587	          0.05054392	          0.32218891	          0.57751761	          0.05000118	          0.05000129	          0.05000400	          0.18017585	          0.12359908	          0.12110514	          0.10240541	          0.24104066	          0.31938297	          0.28537847	          0.24835564	          0.21867044	          0.28671582	          0.05000003	          0.05000051	          0.13575548	          0.05000015	          0.05000004	          0.05000020	          0.05000010	          0.05931628	          0.05931622	
          0.59250530	         -2.91847865	          2.14928768	         -5.76123275	          0.74885938	          0.91555219	          0.00207251	         28.23452098	          3.80676702	         -1.96349910	        -16.78779413	         -1.32427296	          5.86278275	        -12.63476580	        -10.88914832	          3.85315403	         -2.38882815	         -6.66821875	          7.98957708	          0.15878551	          3.81293984	         -0.82792844	         16.37120459	         -1.24478229	         -0.52945451	          2.08570593	         -7.47665959	        -13.49378152	          7.28625902	          4.82114863	        -13.45268658	         16.56011721	         15.84166084	         34.28841084	         86.51662706	         86.51662706	          0.21715193	          0.22234714	          0.25802714	          0.22715195	          0.18047448	          0.14848308	          0.16403819	          0.06362600	          0.06659061	          0.08399397	          0.05000445	          0.08347991	          0.15539481	          0.14141818	          0.11274350	          0.12378706	          0.05000080	          0.05000887	          0.10122665	          0.15699243	          0.13496549	          0.09662940	          0.05000031	          0.05000026	          0.31925917	          0.12127209	          0.16500867	          0.05931606	          0.12027164	          0.11926871	          0.10476890	          0.05223197	          0.05931602	          0.05000006	          0.05000008	          0.05000053	          0.05000062	          0.52909951	          0.33712601	          0.19229571	          0.41751718	          0.47820943	          0.19906715	          0.06624772	          0.11880407	          0.07114034	          0.28245457	          0.07036902	          0.05120173	          0.37258691	          0.13261937	          0.07898865	          0.05000182	          0.05000020	          0.05000015	          0.05000043	          0.07169569	          0.10817208	          0.05186957	          0.05000124	          0.05000157	          0.05000222	          0.26096952	          0.05053018	          0.05000065	          0.05000171	          0.05000097	          0.05000059	          0.28383492	          0.55480721	          0.05000011	          0.05000077	          0.05000053	          0.16534397	          0.10418730	          0.10208510	          0.15448005	          0.20318310	          0.26922107	          0.24055727	          0.20934949	          0.18432654	          0.24168477	          0.05000003	          0.08234712	          0.13698265	          0.05000024	          0.05000011	          0.05000020	          0.05277072	          0.05000015	          0.05000011	
